<svg width="32" height="32" viewBox="0 0 32 32" fill="none" xmlns="http://www.w3.org/2000/svg">
<circle cx="16" cy="16" r="15" stroke="#4CFFF4" stroke-width="2"/>
<path d="M24 15C24 19.9706 20.4183 24 16 24C11.5817 24 8 19.9706 8 15" stroke="#4CFFF4" stroke-width="2"/>
<path d="M13.4556 11.7273C13.4556 12.5924 13.2991 13.358 13.0609 13.8938C12.9417 14.1621 12.8091 14.3568 12.6802 14.4794C12.5532 14.6003 12.4472 14.6364 12.3647 14.6364C12.2822 14.6364 12.1762 14.6003 12.0492 14.4794C11.9203 14.3568 11.7877 14.1621 11.6685 13.8938C11.4304 13.358 11.2738 12.5924 11.2738 11.7273C11.2738 10.8623 11.4304 10.0966 11.6685 9.56084C11.7877 9.29249 11.9203 9.09784 12.0492 8.97519C12.1762 8.85434 12.2822 8.81823 12.3647 8.81823C12.4472 8.81823 12.5532 8.85434 12.6802 8.97519C12.8091 9.09784 12.9417 9.29249 13.0609 9.56084C13.2991 10.0966 13.4556 10.8623 13.4556 11.7273Z" fill="#4CFFF4" stroke="#4CFFF4" stroke-width="0.727273"/>
<path d="M20.7251 11.7273C20.7251 12.5924 20.5686 13.358 20.3305 13.8938C20.2112 14.1621 20.0786 14.3568 19.9497 14.4794C19.8227 14.6003 19.7167 14.6364 19.6342 14.6364C19.5517 14.6364 19.4457 14.6003 19.3187 14.4794C19.1899 14.3568 19.0573 14.1621 18.938 13.8938C18.6999 13.358 18.5433 12.5924 18.5433 11.7273C18.5433 10.8623 18.6999 10.0966 18.938 9.56084C19.0573 9.29249 19.1899 9.09784 19.3187 8.97519C19.4457 8.85434 19.5517 8.81823 19.6342 8.81823C19.7167 8.81823 19.8227 8.85434 19.9497 8.97519C20.0786 9.09784 20.2112 9.29249 20.3305 9.56084C20.5686 10.0966 20.7251 10.8623 20.7251 11.7273Z" fill="#4CFFF4" stroke="#4CFFF4" stroke-width="0.727273"/>
</svg>
